<svg width="34" height="34" viewBox="0 0 34 34" fill="" xmlns="http://www.w3.org/2000/svg">
<path fill-rule="evenodd" clip-rule="evenodd" d="M17.0516 33.9085C26.3803 33.9085 33.9427 26.3461 33.9427 17.0174C33.9427 7.68865 26.3803 0.126221 17.0516 0.126221C7.72283 0.126221 0.1604 7.68865 0.1604 17.0174C0.1604 26.3461 7.72283 33.9085 17.0516 33.9085ZM12.5366 31.447C13.9624 31.8926 15.4789 32.1328 17.0516 32.1328C18.6138 32.1328 20.1207 31.8958 21.5382 31.4558V27.7608C21.5386 27.1647 21.4203 26.5745 21.1901 26.0247C20.9599 25.4749 20.6224 24.9765 20.1974 24.5585C25.1592 23.6858 27.2354 20.663 27.2354 17.0666C27.2354 15.3212 26.6548 13.7059 25.5146 12.411C26.1588 10.408 25.4915 8.69615 25.3395 8.30614C25.3321 8.28707 25.3258 8.27117 25.3211 8.25854C23.4208 8.08611 21.4502 9.50074 21.0526 9.80338C19.8807 9.48667 18.5506 9.31424 17.0585 9.31424C15.5735 9.31424 14.2468 9.47963 13.0856 9.79282C12.9202 9.66262 10.7947 8.01573 8.75016 8.19872C8.7463 8.20862 8.74153 8.2206 8.73597 8.23459C8.58923 8.60336 7.8861 10.3703 8.57773 12.4215C7.45165 13.713 6.87806 15.3141 6.87806 17.056C6.87806 20.6454 8.94019 23.6647 13.8879 24.5515C13.2967 25.1251 12.8674 25.8641 12.6668 26.691C11.7483 26.9198 9.93606 27.152 9.00705 25.7761C7.72261 23.8793 6.61413 23.1791 5.52676 23.7386C5.28538 24.0171 5.59755 24.2271 6.04144 24.5256C6.4388 24.7928 6.94171 25.131 7.24755 25.6529C7.29442 25.7302 7.33858 25.8638 7.39479 26.034C7.7226 27.0262 8.46028 29.2589 12.5366 28.7813V31.447Z" fill=""/>
</svg>
